<?xml version="1.0" encoding="UTF-8" standalone="no"?>
<svg
   xmlns:dc="http://purl.org/dc/elements/1.1/"
   xmlns:cc="http://creativecommons.org/ns#"
   xmlns:rdf="http://www.w3.org/1999/02/22-rdf-syntax-ns#"
   xmlns:svg="http://www.w3.org/2000/svg"
   xmlns="http://www.w3.org/2000/svg"
   xmlns:sodipodi="http://sodipodi.sourceforge.net/DTD/sodipodi-0.dtd"
   xmlns:inkscape="http://www.inkscape.org/namespaces/inkscape"
   inkscape:version="1.0 (4035a4fb49, 2020-05-01)"
   sodipodi:docname="p5.svg"
   id="svg190"
   height="760"
   width="800"
   version="1.1">
  <metadata
     id="metadata196">
    <rdf:RDF>
      <cc:Work
         rdf:about="">
        <dc:format>image/svg+xml</dc:format>
        <dc:type
           rdf:resource="http://purl.org/dc/dcmitype/StillImage" />
        <dc:title></dc:title>
      </cc:Work>
    </rdf:RDF>
  </metadata>
  <defs
     id="defs194" />
  <sodipodi:namedview
     inkscape:current-layer="svg190"
     inkscape:window-maximized="1"
     inkscape:window-y="-11"
     inkscape:window-x="-11"
     inkscape:cy="380"
     inkscape:cx="400"
     inkscape:zoom="2.3005577"
     showgrid="false"
     id="namedview192"
     inkscape:window-height="2080"
     inkscape:window-width="3840"
     inkscape:pageshadow="2"
     inkscape:pageopacity="0"
     guidetolerance="10"
     gridtolerance="10"
     objecttolerance="10"
     borderopacity="1"
     bordercolor="#666666"
     pagecolor="#ffffff" />
  <text
     id="text2"
     transform="rotate(0, 320, 595)"
     dominant-baseline="baseline"
     style="font-family:Arial;font-size:12px;text-anchor:middle"
     y="595"
     x="320">5V power from Arduino</text>
  <line
     id="line4"
     style="stroke:rgb(0, 0, 0);stroke-linecap:square;stroke-width:2"
     y2="630"
     x2="320"
     y1="603"
     x1="320" />
  <ellipse
     id="ellipse6"
     style="fill-opacity:0;fill:rgb(0, 0, 0);stroke:rgb(0, 0, 0);stroke-width:2"
     ry="3"
     rx="3"
     cy="600"
     cx="320" />
  <line
     id="line8"
     style="stroke:rgb(0, 0, 0);stroke-linecap:square;stroke-width:2"
     y2="645"
     x2="480"
     y1="630"
     x1="480" />
  <line
     id="line10"
     style="stroke:rgb(0, 0, 0);stroke-linecap:square;stroke-width:2"
     y2="700"
     x2="480"
     y1="685"
     x1="480" />
  <path
     id="path12"
     style="fill-opacity:0;fill:rgb(0, 0, 0);stroke:rgb(0, 0, 0);stroke-linecap:square;stroke-width:2"
     d="M 480,645 L 480,647 L 473,650 L 487,656 L 473,662 L 487,668 L 473,674 L 487,680 L 480,683 L 480,685" />
  <text
     id="text14"
     transform="rotate(0, 466, 665)"
     dominant-baseline="middle"
     style="font-family:Arial;font-size:11px;text-anchor:end"
     y="665"
     x="466">10 kΩ</text>
  <line
     id="line16"
     style="stroke:rgb(0, 0, 0);stroke-linecap:square;stroke-width:2"
     y2="630"
     x2="386"
     y1="630"
     x1="320" />
  <line
     id="line18"
     style="stroke:rgb(0, 0, 0);stroke-linecap:square;stroke-width:2"
     y2="630"
     x2="480"
     y1="630"
     x1="414" />
  <ellipse
     id="ellipse20"
     style="fill-opacity:0;fill:rgb(0, 0, 0);stroke:rgb(0, 0, 0);stroke-width:2"
     ry="3"
     rx="3"
     cy="630"
     cx="389" />
  <ellipse
     id="ellipse22"
     style="fill-opacity:0;fill:rgb(0, 0, 0);stroke:rgb(0, 0, 0);stroke-width:2"
     ry="3"
     rx="3"
     cy="630"
     cx="411" />
  <line
     id="line24"
     style="stroke:rgb(0, 0, 0);stroke-linecap:square;stroke-width:2"
     y2="622"
     x2="412"
     y1="622"
     x1="388" />
  <line
     id="line26"
     style="stroke:rgb(0, 0, 0);stroke-linecap:square;stroke-width:2"
     y2="616"
     x2="406"
     y1="616"
     x1="394" />
  <line
     id="line28"
     style="stroke:rgb(0, 0, 0);stroke-linecap:square;stroke-width:2"
     y2="622"
     x2="400"
     y1="616"
     x1="400" />
  <line
     id="line30"
     style="stroke:rgb(0, 0, 0);stroke-linecap:square;stroke-width:2"
     y2="722"
     x2="480"
     y1="700"
     x1="480" />
  <path
     id="path32"
     style="fill-opacity:0;fill:rgb(0, 0, 0);stroke:rgb(0, 0, 0);stroke-linecap:square;stroke-width:2"
     d="M 472,722 L 488,722 L 480,730 L 472,722" />
  <text
     id="text34"
     transform="rotate(0, 480, 575)"
     dominant-baseline="baseline"
     style="font-family:Arial;font-size:12px;text-anchor:middle"
     y="575"
     x="480">Pin 4 (input)</text>
  <line
     id="line36"
     style="stroke:rgb(0, 0, 0);stroke-linecap:square;stroke-width:2"
     y2="630"
     x2="480"
     y1="583"
     x1="480" />
  <ellipse
     id="ellipse38"
     style="fill-opacity:0;fill:rgb(0, 0, 0);stroke:rgb(0, 0, 0);stroke-width:2"
     ry="3"
     rx="3"
     cy="580"
     cx="480" />
  <text
     id="text40"
     transform="rotate(0, 180, 630)"
     dominant-baseline="middle"
     style="font-family:Arial;font-size:11px;text-anchor:start"
     y="630"
     x="180">Fan</text>
  <line
     id="line42"
     style="stroke:rgb(0, 0, 0);stroke-linecap:square;stroke-width:2"
     y2="672"
     x2="150"
     y1="650"
     x1="150" />
  <path
     id="path44"
     style="fill-opacity:0;fill:rgb(0, 0, 0);stroke:rgb(0, 0, 0);stroke-linecap:square;stroke-width:2"
     d="M 142,672 L 158,672 L 150,680 L 142,672" />
  <text
     id="text46"
     transform="rotate(0, 150, 555)"
     dominant-baseline="baseline"
     style="font-family:Arial;font-size:12px;text-anchor:middle"
     y="555"
     x="150">Pin 7 (Output)</text>
  <line
     id="line48"
     style="stroke:rgb(0, 0, 0);stroke-linecap:square;stroke-width:2"
     y2="610"
     x2="150"
     y1="563"
     x1="150" />
  <ellipse
     id="ellipse50"
     style="fill-opacity:0;fill:rgb(0, 0, 0);stroke:rgb(0, 0, 0);stroke-width:2"
     ry="3"
     rx="3"
     cy="560"
     cx="150" />
  <line
     id="line52"
     style="stroke:rgb(0, 0, 0);stroke-linecap:square;stroke-width:2"
     y2="617"
     x2="150"
     y1="610"
     x1="150" />
  <line
     id="line54"
     style="stroke:rgb(0, 0, 0);stroke-linecap:square;stroke-width:2"
     y2="650"
     x2="150"
     y1="643"
     x1="150" />
  <ellipse
     id="ellipse56"
     style="fill-opacity:0;fill:rgb(0, 0, 0);stroke:rgb(0, 0, 0);stroke-width:2"
     ry="12"
     rx="12"
     cy="630"
     cx="150" />
  <text
     id="text58"
     transform="rotate(0, 150, 630)"
     dominant-baseline="middle"
     style="font-family:Arial;font-size:12px;text-anchor:middle"
     y="630"
     x="150">M</text>
  <text
     id="text60"
     transform="rotate(0, 392, 450)"
     dominant-baseline="middle"
     style="font-family:Arial;font-size:12px;text-anchor:end"
     y="450"
     x="392">5V power from Arduino</text>
  <line
     id="line62"
     style="stroke:rgb(0, 0, 0);stroke-linecap:square;stroke-width:2"
     y2="450"
     x2="480"
     y1="450"
     x1="403" />
  <ellipse
     id="ellipse64"
     style="fill-opacity:0;fill:rgb(0, 0, 0);stroke:rgb(0, 0, 0);stroke-width:2"
     ry="3"
     rx="3"
     cy="450"
     cx="400" />
  <line
     id="line66"
     style="stroke:rgb(0, 0, 0);stroke-linecap:square;stroke-width:2"
     y2="175"
     x2="730"
     y1="170"
     x1="730" />
  <line
     id="line68"
     style="stroke:rgb(0, 0, 0);stroke-linecap:square;stroke-width:2"
     y2="220"
     x2="730"
     y1="215"
     x1="730" />
  <path
     id="path70"
     style="fill-opacity:0;fill:rgb(0, 0, 0);stroke:rgb(0, 0, 0);stroke-linecap:square;stroke-width:2"
     d="M 730,175 L 730,177 L 723,180 L 737,186 L 723,192 L 737,198 L 723,204 L 737,210 L 730,213 L 730,215" />
  <text
     id="text72"
     transform="rotate(0, 716, 195)"
     dominant-baseline="middle"
     style="font-family:Arial;font-size:11px;text-anchor:end"
     y="195"
     x="716">330 Ω</text>
  <line
     id="line74"
     style="stroke:rgb(0, 0, 0);stroke-linecap:square;stroke-width:2"
     y2="282"
     x2="760"
     y1="260"
     x1="760" />
  <path
     id="path76"
     style="fill-opacity:0;fill:rgb(0, 0, 0);stroke:rgb(0, 0, 0);stroke-linecap:square;stroke-width:2"
     d="M 752,282 L 768,282 L 760,290 L 752,282" />
  <text
     id="text78"
     transform="rotate(0, 730, 45)"
     dominant-baseline="baseline"
     style="font-family:Arial;font-size:12px;text-anchor:middle"
     y="45"
     x="730">Pin 9 (output)</text>
  <line
     id="line80"
     style="stroke:rgb(0, 0, 0);stroke-linecap:square;stroke-width:2"
     y2="170"
     x2="730"
     y1="53"
     x1="730" />
  <ellipse
     id="ellipse82"
     style="fill-opacity:0;fill:rgb(0, 0, 0);stroke:rgb(0, 0, 0);stroke-width:2"
     ry="3"
     rx="3"
     cy="50"
     cx="730" />
  <line
     id="line84"
     style="stroke:rgb(0, 0, 0);stroke-linecap:square;stroke-width:2"
     y2="212"
     x2="560"
     y1="200"
     x1="560" />
  <path
     id="path86"
     style="fill-opacity:0;fill:rgb(0, 0, 0);stroke:rgb(0, 0, 0);stroke-linecap:square;stroke-width:2"
     d="M 552,212 L 568,212 L 560,220 L 552,212" />
  <line
     id="line88"
     style="stroke:rgb(0, 0, 0);stroke-linecap:square;stroke-width:2"
     y2="412"
     x2="450"
     y1="390"
     x1="450" />
  <path
     id="path90"
     style="fill-opacity:0;fill:rgb(0, 0, 0);stroke:rgb(0, 0, 0);stroke-linecap:square;stroke-width:2"
     d="M 442,412 L 458,412 L 450,420 L 442,412" />
  <line
     id="line92"
     style="stroke:rgb(0, 0, 0);stroke-linecap:square;stroke-width:2"
     y2="490"
     x2="510"
     y1="390"
     x1="510" />
  <line
     id="line94"
     style="stroke:rgb(0, 0, 0);stroke-linecap:square;stroke-width:2"
     y2="450"
     x2="480"
     y1="390"
     x1="480" />
  <text
     id="text96"
     transform="rotate(0, 362, 260)"
     dominant-baseline="middle"
     style="font-family:Arial;font-size:12px;text-anchor:end"
     y="260"
     x="362">19.5 V in</text>
  <line
     id="line98"
     style="stroke:rgb(0, 0, 0);stroke-linecap:square;stroke-width:2"
     y2="260"
     x2="430"
     y1="260"
     x1="373" />
  <ellipse
     id="ellipse100"
     style="fill-opacity:0;fill:rgb(0, 0, 0);stroke:rgb(0, 0, 0);stroke-width:2"
     ry="3"
     rx="3"
     cy="260"
     cx="370" />
  <text
     id="text102"
     transform="rotate(0, 392, 490)"
     dominant-baseline="middle"
     style="font-family:Arial;font-size:12px;text-anchor:end"
     y="490"
     x="392">Pin 2</text>
  <line
     id="line104"
     style="stroke:rgb(0, 0, 0);stroke-linecap:square;stroke-width:2"
     y2="490"
     x2="510"
     y1="490"
     x1="403" />
  <ellipse
     id="ellipse106"
     style="fill-opacity:0;fill:rgb(0, 0, 0);stroke:rgb(0, 0, 0);stroke-width:2"
     ry="3"
     rx="3"
     cy="490"
     cx="400" />
  <text
     id="text108"
     transform="rotate(0, 162, 200)"
     dominant-baseline="middle"
     style="font-family:Arial;font-size:12px;text-anchor:end"
     y="200"
     x="162">5V power from Arduino</text>
  <line
     id="line110"
     style="stroke:rgb(0, 0, 0);stroke-linecap:square;stroke-width:2"
     y2="200"
     x2="250"
     y1="200"
     x1="173" />
  <ellipse
     id="ellipse112"
     style="fill-opacity:0;fill:rgb(0, 0, 0);stroke:rgb(0, 0, 0);stroke-width:2"
     ry="3"
     rx="3"
     cy="200"
     cx="170" />
  <text
     id="text114"
     transform="rotate(0, 400, 45)"
     dominant-baseline="baseline"
     style="font-family:Arial;font-size:12px;text-anchor:middle"
     y="45"
     x="400">Pin A1 (Input)</text>
  <line
     id="line116"
     style="stroke:rgb(0, 0, 0);stroke-linecap:square;stroke-width:2"
     y2="200"
     x2="400"
     y1="53"
     x1="400" />
  <ellipse
     id="ellipse118"
     style="fill-opacity:0;fill:rgb(0, 0, 0);stroke:rgb(0, 0, 0);stroke-width:2"
     ry="3"
     rx="3"
     cy="50"
     cx="400" />
  <line
     id="line120"
     style="stroke:rgb(0, 0, 0);stroke-linecap:square;stroke-width:2"
     y2="200"
     x2="305"
     y1="200"
     x1="250" />
  <line
     id="line122"
     style="stroke:rgb(0, 0, 0);stroke-linecap:square;stroke-width:2"
     y2="200"
     x2="400"
     y1="200"
     x1="345" />
  <path
     id="path124"
     style="fill-opacity:0;fill:rgb(0, 0, 0);stroke:rgb(0, 0, 0);stroke-linecap:square;stroke-width:2"
     d="M 305,200 L 307,200 L 310,193 L 316,207 L 322,193 L 328,207 L 334,193 L 340,207 L 343,200 L 345,200" />
  <text
     id="text126"
     transform="rotate(0, 325, 186)"
     dominant-baseline="baseline"
     style="font-family:Arial;font-size:11px;text-anchor:middle"
     y="186"
     x="325">10 kΩ</text>
  <line
     id="line128"
     style="stroke:rgb(0, 0, 0);stroke-linecap:square;stroke-width:2"
     y2="260"
     x2="700"
     y1="260"
     x1="500" />
  <line
     id="line130"
     style="stroke:rgb(0, 0, 0);stroke-linecap:square;stroke-width:2"
     y2="260"
     x2="717"
     y1="260"
     x1="700" />
  <line
     id="line132"
     style="stroke:rgb(0, 0, 0);stroke-linecap:square;stroke-width:2"
     y2="260"
     x2="760"
     y1="260"
     x1="743" />
  <line
     id="line134"
     style="stroke:rgb(0, 0, 0);stroke-linecap:square;stroke-width:2"
     y2="246"
     x2="730"
     y1="220"
     x1="730" />
  <line
     id="line136"
     style="stroke:rgb(0, 0, 0);stroke-linecap:square;stroke-width:3"
     y2="245.5"
     x2="738"
     y1="245.5"
     x1="722" />
  <line
     id="line138"
     style="stroke:rgb(0, 0, 0);stroke-linecap:square;stroke-width:2"
     y2="245.5"
     x2="726"
     y1="260"
     x1="717" />
  <line
     id="line140"
     style="stroke:rgb(0, 0, 0);stroke-linecap:square;stroke-width:2"
     y2="260"
     x2="743"
     y1="245.5"
     x1="734" />
  <ellipse
     id="ellipse142"
     style="fill-opacity:0;fill:rgb(0, 0, 0);stroke:rgb(0, 0, 0);stroke-width:2"
     ry="16"
     rx="16"
     cy="250"
     cx="730" />
  <path
     id="path144"
     style="fill-opacity:1;fill:rgb(0, 0, 0);stroke:rgb(0, 0, 0);stroke-linecap:square;stroke-width:2"
     d="M 737,252 L 735,256 L 742,257 L 738,251 L 737,253" />
  <text
     id="text146"
     dominant-baseline="middle"
     style="font-size:11px;font-family:Arial;text-anchor:start"
     y="305.65323"
     x="463.49438">DHT11</text>
  <rect
     id="rect148"
     style="fill:#000000;fill-opacity:0;stroke:#000000;stroke-width:2.87256"
     height="82.515854"
     width="100"
     y="277.48413"
     x="430" />
  <line
     id="line150"
     style="stroke:rgb(0, 0, 0);stroke-linecap:square;stroke-width:2"
     y2="390"
     x2="510"
     y1="360"
     x1="510" />
  <line
     id="line152"
     style="stroke:rgb(0, 0, 0);stroke-linecap:square;stroke-width:2"
     y2="390"
     x2="480"
     y1="360"
     x1="480" />
  <line
     id="line154"
     style="stroke:rgb(0, 0, 0);stroke-linecap:square;stroke-width:2"
     y2="390"
     x2="450"
     y1="360"
     x1="450" />
  <text
     id="text156"
     transform="rotate(0, 450, 340)"
     dominant-baseline="middle"
     style="font-family:Arial;font-size:11px;text-anchor:middle"
     y="340"
     x="450">GND</text>
  <text
     id="text158"
     transform="rotate(0, 480, 340)"
     dominant-baseline="middle"
     style="font-family:Arial;font-size:11px;text-anchor:middle"
     y="340"
     x="480">VCC</text>
  <text
     id="text160"
     transform="rotate(0, 510, 340)"
     dominant-baseline="middle"
     style="font-family:Arial;font-size:11px;text-anchor:middle"
     y="340"
     x="510">DATA</text>
  <line
     id="line168"
     style="stroke:rgb(0, 0, 0);stroke-linecap:square;stroke-width:2"
     y2="260"
     x2="455"
     y1="260"
     x1="450" />
  <line
     id="line170"
     style="stroke:rgb(0, 0, 0);stroke-linecap:square;stroke-width:2"
     y2="260"
     x2="500"
     y1="260"
     x1="495" />
  <path
     id="path172"
     style="fill-opacity:0;fill:rgb(0, 0, 0);stroke:rgb(0, 0, 0);stroke-linecap:square;stroke-width:2"
     d="M 455,260 L 457,260 L 460,253 L 466,267 L 472,253 L 478,267 L 484,253 L 490,267 L 493,260 L 495,260" />
  <text
     id="text174"
     transform="rotate(0, 475, 246)"
     dominant-baseline="baseline"
     style="font-family:Arial;font-size:11px;text-anchor:middle"
     y="246"
     x="475">1 kΩ</text>
  <line
     id="line176"
     style="stroke:rgb(0, 0, 0);stroke-linecap:square;stroke-width:2"
     y2="260"
     x2="450"
     y1="260"
     x1="430" />
  <line
     id="line178"
     style="stroke:rgb(0, 0, 0);stroke-linecap:square;stroke-width:2"
     y2="200"
     x2="460"
     y1="200"
     x1="400" />
  <line
     id="line180"
     style="stroke:rgb(0, 0, 0);stroke-linecap:square;stroke-width:2"
     y2="200"
     x2="560"
     y1="200"
     x1="500" />
  <rect
     id="rect182"
     style="fill-opacity:0;fill:rgb(0, 0, 0);stroke:rgb(0, 0, 0);stroke-width:2"
     height="16"
     width="40"
     y="192"
     x="460" />
  <path
     id="path184"
     style="fill-opacity:0;fill:rgb(0, 0, 0);stroke:rgb(0, 0, 0);stroke-linecap:square;stroke-width:2"
     d="M 480,200 M 460,217 L 473,217 L 487,183" />
  <ellipse
     id="ellipse186"
     style="fill-opacity:1;fill:rgb(0, 0, 0);stroke:rgb(0, 0, 0);stroke-width:2"
     ry="2"
     rx="2"
     cy="630"
     cx="480" />
  <ellipse
     id="ellipse188"
     style="fill-opacity:1;fill:rgb(0, 0, 0);stroke:rgb(0, 0, 0);stroke-width:2"
     ry="2"
     rx="2"
     cy="200"
     cx="400" />
</svg>
